<?xml version="1.0" encoding="UTF-8"?>
<svg id="Capa_1" xmlns="http://www.w3.org/2000/svg" viewBox="0 0 1920 1080">
  <defs>
    <style>
      .cls-1 {
        fill: #ef4444;
      }
    </style>
  </defs>
  <path class="cls-1" d="M581.26,897.54V182.38c0-19.89,16.12-36.01,36.01-36.01h95.02c20.08,0,36.14,16.64,35.44,36.71-4.55,130.87-2.35,565.91,229.1,547.7,0,0,205.81-11.17,195.07-548.4-.39-19.51,15.25-35.58,34.76-35.63l99.53-.28c17.96-.05,32.55,14.49,32.55,32.45v717c0,20.83-16.88,37.71-37.71,37.71h-93.34c-20.57,0-37.24-16.67-37.24-37.24v-220.8s-63.2,116.42-188.84,129.66c-3.66.39-7.36.09-11.02.35-26.42,1.93-149.3,2.53-221.04-142.62v233.95c0,20.27-16.44,36.71-36.71,36.71h-95.49c-19.93,0-36.09-16.16-36.09-36.09Z"/>
</svg>
